<svg width="88" height="84" viewBox="0 0 88 84" fill="none" xmlns="http://www.w3.org/2000/svg">
<path d="M44 3C69.115 3 84.9999 21.7575 85 41.4922C85 61.2352 68.9549 79.9854 44 79.9854C37.2818 79.9854 31.1821 78.6251 25.8564 76.2246L12.5107 80.6992L12.5117 80.7012C11.475 81.0506 10.3598 81.0944 9.29883 80.8271C8.23792 80.5598 7.27673 79.9937 6.5293 79.1973C5.78215 78.4011 5.27961 77.408 5.07715 76.3369C4.87476 75.2657 4.98035 74.1577 5.38379 73.1445L9.57129 62.6172C5.3298 56.4125 3.03286 49.0583 3 41.5059V41.4922C3.00014 21.7575 18.885 3 44 3Z" fill="#3CB81D" stroke="white" stroke-width="6"/>
</svg>
