<svg width="80" height="80" viewBox="0 0 80 80" fill="none" xmlns="http://www.w3.org/2000/svg">
<rect x="3" y="3" width="74" height="74" rx="21" fill="black" fill-opacity="0.53" stroke="white" stroke-width="6"/>
<path d="M55.75 38.6842H24.25V25.5263H55.75M51.8125 54.4737C50.7682 54.4737 49.7667 54.0578 49.0283 53.3175C48.2898 52.5772 47.875 51.5732 47.875 50.5263C47.875 49.4794 48.2898 48.4754 49.0283 47.7351C49.7667 46.9948 50.7682 46.5789 51.8125 46.5789C52.8568 46.5789 53.8583 46.9948 54.5967 47.7351C55.3352 48.4754 55.75 49.4794 55.75 50.5263C55.75 51.5732 55.3352 52.5772 54.5967 53.3175C53.8583 54.0578 52.8568 54.4737 51.8125 54.4737ZM28.1875 54.4737C27.1432 54.4737 26.1417 54.0578 25.4033 53.3175C24.6648 52.5772 24.25 51.5732 24.25 50.5263C24.25 49.4794 24.6648 48.4754 25.4033 47.7351C26.1417 46.9948 27.1432 46.5789 28.1875 46.5789C29.2318 46.5789 30.2333 46.9948 30.9717 47.7351C31.7102 48.4754 32.125 49.4794 32.125 50.5263C32.125 51.5732 31.7102 52.5772 30.9717 53.3175C30.2333 54.0578 29.2318 54.4737 28.1875 54.4737ZM19 51.8421C19 54.1579 20.0237 56.2368 21.625 57.6842V62.3684C21.625 63.0664 21.9016 63.7357 22.3938 64.2292C22.8861 64.7227 23.5538 65 24.25 65H26.875C27.5712 65 28.2389 64.7227 28.7312 64.2292C29.2234 63.7357 29.5 63.0664 29.5 62.3684V59.7368H50.5V62.3684C50.5 63.0664 50.7766 63.7357 51.2688 64.2292C51.7611 64.7227 52.4288 65 53.125 65H55.75C56.4462 65 57.1139 64.7227 57.6062 64.2292C58.0984 63.7357 58.375 63.0664 58.375 62.3684V57.6842C59.9763 56.2368 61 54.1579 61 51.8421V25.5263C61 16.3158 51.6025 15 40 15C28.3975 15 19 16.3158 19 25.5263V51.8421Z" fill="white"/>
</svg>
