<svg width="139" height="175" viewBox="0 0 139 175" fill="none" xmlns="http://www.w3.org/2000/svg">
<path d="M83.8193 4.91895C87.2494 4.34727 90.7506 4.34727 94.1807 4.91895C99.5108 5.80733 104.523 8.05133 108.735 11.4355L119.044 19.7168C129.132 27.821 135 40.063 135 53.0029V97.3975C135 113.039 117.442 122.251 104.571 113.363C95.1992 106.891 82.8008 106.891 73.4287 113.363C60.5582 122.251 43 113.039 43 97.3975V53.0029C43 40.063 48.8683 27.821 58.9561 19.7168L69.2646 11.4355C73.4773 8.05133 78.4892 5.80733 83.8193 4.91895Z" fill="#E69005" stroke="white" stroke-width="8"/>
<path d="M63.8193 21.9189C67.2494 21.3473 70.7506 21.3473 74.1807 21.9189C79.5108 22.8073 84.5227 25.0513 88.7354 28.4355L99.044 36.7168C109.132 44.821 115 57.063 115 70.0029V114.397C115 130.039 97.4418 139.251 84.5713 130.363C75.1992 123.891 62.8008 123.891 53.4287 130.363C40.5582 139.251 23 130.039 23 114.397L23 70.0029C23 57.063 28.8683 44.821 38.9561 36.7168L49.2647 28.4355C53.4773 25.0513 58.4892 22.8073 63.8193 21.9189Z" fill="#E35351" stroke="white" stroke-width="8"/>
<path d="M44.8193 37.9189C48.2494 37.3473 51.7506 37.3473 55.1807 37.9189C60.5108 38.8073 65.5227 41.0513 69.7353 44.4355L80.0439 52.7168C90.1317 60.821 96 73.063 96 86.0029V130.397C96 146.039 78.4418 155.251 65.5713 146.363C56.1992 139.891 43.8008 139.891 34.4287 146.363C21.5582 155.251 4 146.039 4 130.397V86.0029C4 73.063 9.86826 60.821 19.9561 52.7168L30.2646 44.4355C34.4773 41.0513 39.4892 38.8073 44.8193 37.9189Z" fill="#3CB81D" stroke="white" stroke-width="8"/>
</svg>
